<svg width="38" height="38" viewBox="0 0 38 38" fill="none" xmlns="http://www.w3.org/2000/svg">
<g filter="url(#filter0_d)">
<path d="M28.8132 26.2055C24.3897 25.8149 20.2373 24.4542 16.4371 22.1498C15.8705 21.8062 15.6146 21.1176 15.8197 20.4875L20.3602 6.5285C24.234 9.08143 28.4932 10.6242 33.0476 11.1273C33.8713 11.2183 34.2832 12.1693 33.782 12.8293C32.7619 14.1725 31.7353 15.5106 30.7023 16.8438C29.8682 17.9203 29.4686 19.2705 29.5817 20.6276C29.7046 22.1023 29.8316 23.5766 29.9624 25.0505C30.0208 25.7089 29.4716 26.2636 28.8132 26.2055Z" fill="url(#paint0_linear)"/>
<path d="M18.0943 17.0551C17.5277 16.7115 17.2718 16.0229 17.4768 15.3928L15.8197 20.4874C15.6146 21.1176 15.8705 21.8061 16.4371 22.1497C18.9557 23.677 21.629 24.7893 24.4334 25.4798L26.0905 20.3851C23.2862 19.6946 20.6127 18.5824 18.0943 17.0551Z" fill="url(#paint1_linear)"/>
<path d="M19.8448 11.6734C22.1974 13.1001 25.0107 14.27 27.8301 15.037L29.3168 10.4664C29.3169 10.4664 29.3169 10.4664 29.3169 10.4664C26.1532 9.68741 23.1562 8.37128 20.3601 6.5285L19.2274 10.011C19.0224 10.6413 19.2782 11.3297 19.8448 11.6734Z" fill="url(#paint2_linear)"/>
<path d="M29.6151 21.0226C28.4191 20.882 27.2437 20.6691 26.0905 20.3851L24.4333 25.4798C25.8605 25.8312 27.3214 26.0738 28.8132 26.2054C29.4716 26.2635 30.0207 25.7089 29.9624 25.0505C29.8433 23.7082 29.7277 22.3655 29.6151 21.0226Z" fill="url(#paint3_linear)"/>
<path d="M29.5817 20.6277C29.4686 19.2706 29.8682 17.9203 30.7023 16.8438C30.9711 16.4969 31.2383 16.1487 31.5062 15.8011C30.3053 15.6324 29.0673 15.3735 27.8302 15.0369L26.0906 20.3851C27.2439 20.6691 28.4192 20.8819 29.6152 21.0226C29.6041 20.891 29.5927 20.7593 29.5817 20.6277Z" fill="url(#paint4_linear)"/>
<path d="M26.8996 9.75526C24.6186 8.9721 22.4341 7.89526 20.3602 6.5285L15.8197 20.4875C15.6146 21.1176 15.8705 21.8061 16.4371 22.1498C20.2372 24.4543 24.3898 25.8149 28.8132 26.2055C29.4716 26.2636 30.0208 25.7089 29.9624 25.0506C29.8316 23.5766 29.7046 22.1023 29.5817 20.6277C29.4739 19.3349 29.8324 18.0489 30.5876 16.9993L26.8996 9.75526Z" fill="url(#paint5_linear)"/>
<path d="M19.8447 11.6734C19.2781 11.3298 19.0222 10.6412 19.2272 10.011L17.4766 15.3928C17.2716 16.0229 17.5274 16.7114 18.0941 17.0551C20.6126 18.5824 23.286 19.6947 26.0903 20.3851L27.83 15.0369C25.0106 14.2699 22.1973 13.1 19.8447 11.6734Z" fill="url(#paint6_linear)"/>
<path d="M33.7819 12.8293C34.2831 12.1694 33.8711 11.2183 33.0475 11.1273C31.7805 10.9874 30.5363 10.7667 29.3168 10.4664L27.8301 15.037C29.0671 15.3735 30.3051 15.6325 31.5061 15.8012C32.2678 14.813 33.0273 13.823 33.7819 12.8293Z" fill="url(#paint7_linear)"/>
<path d="M27.83 15.037L26.0904 20.385C23.2864 19.6944 20.6126 18.5824 18.0941 17.0547C17.5275 16.7111 17.2719 16.0227 17.4769 15.3927L19.2274 10.0112C19.0225 10.6411 19.278 11.3296 19.8446 11.6731C22.1977 13.0999 25.0107 14.2697 27.83 15.037Z" fill="url(#paint8_linear)"/>
<path d="M29.8305 15.5128C29.1671 15.3782 28.4985 15.2186 27.8301 15.0371L28.5157 12.9293L29.8305 15.5128Z" fill="url(#paint9_linear)"/>
<path d="M23.0927 21.1669C23.0927 21.1669 21.3456 19.8029 16.5507 18.2401L15.8197 20.4874C15.6139 21.1199 15.874 21.8083 16.4428 22.1531C17.6681 22.8957 18.9301 23.5401 20.2259 24.0855C21.1324 24.4672 22.1718 23.9984 22.476 23.063L23.0927 21.1669Z" fill="url(#paint10_linear)"/>
<path d="M21.8757 21.2178C17.7264 18.7092 13.1574 17.3247 8.2749 17.0987C9.90281 12.0941 11.5306 7.08957 13.1585 2.08502C17.6005 2.29069 21.7829 3.45512 25.626 5.55254C26.8799 6.23692 27.4668 7.71916 27.0249 9.07766C25.9508 12.3798 22.5156 22.9405 22.5156 22.9405C22.7282 22.2874 22.4634 21.573 21.8757 21.2178Z" fill="url(#paint11_linear)"/>
<path d="M24.3547 9.46104C23.7227 9.11616 23.0814 8.797 22.4314 8.50262L20.7283 13.7385C21.3783 14.0329 22.0196 14.352 22.6516 14.6969C23.9055 15.3813 24.4924 16.8635 24.0505 18.222C24.74 16.1024 25.3854 14.118 25.7536 12.9862C26.1955 11.6277 25.6087 10.1454 24.3547 9.46104Z" fill="url(#paint12_linear)"/>
<path d="M17.2178 6.72931L15.5146 11.9652C17.3075 12.3854 19.0474 12.9773 20.7283 13.7385L22.4315 8.50259C20.7505 7.7414 19.0106 7.14948 17.2178 6.72931Z" fill="url(#paint13_linear)"/>
<path d="M11.8872 5.99347C11.3195 7.73874 10.7518 9.48407 10.1841 11.2293C12.0065 11.3137 13.7851 11.5598 15.5146 11.9652L17.2178 6.72929C15.4883 6.32394 13.7096 6.07784 11.8872 5.99347Z" fill="url(#paint14_linear)"/>
<path d="M15.5148 11.9651L13.6057 17.8342C15.3984 18.2543 17.1384 18.846 18.8196 19.6069L20.7284 13.7384C19.0474 12.9772 17.3075 12.3853 15.5148 11.9651Z" fill="url(#paint15_linear)"/>
<path d="M22.4315 8.50264L23.7028 4.5942C22.0219 3.83225 20.2819 3.24051 18.4891 2.82092L17.2178 6.7293C19.0106 7.14948 20.7505 7.74139 22.4315 8.50264Z" fill="url(#paint16_linear)"/>
<path d="M22.5158 22.9405C22.5158 22.9404 22.8043 22.0535 23.2398 20.7146L13.7732 2.12041C13.5688 2.10682 13.3641 2.09451 13.1585 2.08502C11.5306 7.08957 9.90281 12.0941 8.2749 17.0987C13.1574 17.3247 17.7264 18.7092 21.8757 21.2178C22.4636 21.573 22.7283 22.2874 22.5158 22.9405Z" fill="url(#paint17_linear)"/>
<path d="M11.8873 5.99352C13.7096 6.07789 15.4883 6.32399 17.2178 6.72934L18.4891 2.82096C16.7596 2.41572 14.9809 2.16939 13.1583 2.08496L8.27466 17.0988C10.0973 17.1833 11.8761 17.429 13.6056 17.8343L15.5147 11.9652C13.7852 11.5599 12.0065 11.3138 10.1841 11.2294C10.7518 9.48406 11.3195 7.73879 11.8873 5.99352Z" fill="url(#paint18_linear)"/>
<path d="M25.7551 12.9809C26.2741 11.3853 26.7352 9.96781 27.0247 9.07783C27.4667 7.71892 26.8797 6.23679 25.626 5.55271C24.9939 5.20742 24.3527 4.88814 23.7027 4.59418L22.4314 8.50261C23.0814 8.79699 23.7227 9.11609 24.3547 9.46103C25.607 10.1445 26.1939 11.6238 25.7551 12.9809Z" fill="url(#paint19_linear)"/>
<path d="M22.6515 14.6969C22.0195 14.3521 21.3782 14.0329 20.7282 13.7385L18.8193 19.607C19.8612 20.0793 20.8804 20.616 21.8759 21.2178C22.1692 21.3957 22.3825 21.6627 22.4954 21.9674C22.6089 22.2724 22.6217 22.6139 22.5155 22.9406C22.5155 22.9406 23.1993 20.8385 24.052 18.2168C24.4907 16.8598 23.9039 15.3804 22.6515 14.6969Z" fill="url(#paint20_linear)"/>
<path d="M17.2178 6.72931L15.5146 11.9652C17.3075 12.3854 19.0474 12.9773 20.7283 13.7385L22.4315 8.50259C20.7505 7.7414 19.0106 7.14948 17.2178 6.72931Z" fill="url(#paint21_linear)"/>
<path d="M15.9872 6.47029C14.6479 6.21717 13.2803 6.05791 11.8872 5.99328L13.1585 2.08496C13.2727 2.09023 13.3859 2.09609 13.4996 2.10271C13.5908 2.10887 13.6822 2.11437 13.7733 2.12053L13.7738 2.12141L15.9872 6.47029Z" fill="url(#paint22_linear)"/>
<path d="M23.2395 20.7146L22.5157 22.94C22.6019 22.6749 22.6097 22.3995 22.5488 22.1419C22.5396 22.1025 22.5282 22.0633 22.5158 22.0244C22.5098 22.0057 22.5033 21.9862 22.4959 21.9671C22.4536 21.8526 22.3972 21.7442 22.3277 21.6435C22.3047 21.6095 22.2798 21.5765 22.2536 21.5452C22.2405 21.5295 22.2275 21.514 22.2136 21.4981C22.1725 21.4522 22.1284 21.4083 22.0806 21.367C22.018 21.3125 21.9495 21.2622 21.8761 21.2179C21.7388 21.1346 21.6008 21.0534 21.4627 20.9729C21.3069 20.8813 21.1502 20.7925 20.9926 20.7041C20.9739 20.6942 20.9547 20.6834 20.9355 20.6727C20.8278 20.6126 20.7198 20.5533 20.6114 20.4953C20.5508 20.4627 20.4902 20.4301 20.4287 20.398C20.3681 20.3655 20.3073 20.3336 20.2458 20.3015C20.1849 20.2696 20.1232 20.2381 20.0615 20.2067C20.0219 20.1863 19.981 20.1654 19.9408 20.1447C19.8907 20.1194 19.8399 20.0938 19.789 20.0689C19.7322 20.0406 19.6749 20.012 19.6173 19.9842C19.5195 19.9357 19.4208 19.8877 19.3222 19.8412C19.1983 19.782 19.0739 19.7241 18.9494 19.6669C18.906 19.6467 18.8632 19.6267 18.8196 19.6073L20.3228 14.9859L23.2395 20.7146Z" fill="url(#paint23_linear)"/>
<path d="M19.4034 13.1788C18.1384 12.6809 16.8407 12.2763 15.5149 11.9654L16.7899 8.04547L19.4034 13.1788Z" fill="url(#paint24_linear)"/>
<path d="M25.7537 12.9861C25.7543 12.9844 25.7547 12.9827 25.7553 12.981C25.2077 14.6643 24.5956 16.546 24.0521 18.2168C24.0516 18.2185 24.0511 18.2203 24.0505 18.222C24.7401 16.1024 25.3855 14.1178 25.7537 12.9861Z" fill="url(#paint25_linear)"/>
<path d="M24.3547 9.46104C23.7227 9.11616 23.0814 8.797 22.4314 8.50262L20.7283 13.7385C21.3783 14.0329 22.0196 14.352 22.6516 14.6969C23.9039 15.3804 24.4908 16.8597 24.0521 18.2168C24.5955 16.546 25.2076 14.6643 25.7552 12.9809C26.1939 11.6239 25.607 10.1445 24.3547 9.46104Z" fill="url(#paint26_linear)"/>
<path d="M4.37322 29.0927C4.08951 29.0004 3.93436 28.6956 4.02664 28.4119L12.8605 1.25384C12.9528 0.970075 13.2576 0.814977 13.5413 0.907262C13.825 0.999548 13.9801 1.30429 13.8879 1.58806L5.05402 28.746C4.96174 29.0297 4.65693 29.185 4.37322 29.0927Z" fill="url(#paint27_linear)"/>
</g>
<defs>
<filter id="filter0_d" x="0" y="0" width="38" height="38" filterUnits="userSpaceOnUse" color-interpolation-filters="sRGB">
<feFlood flood-opacity="0" result="BackgroundImageFix"/>
<feColorMatrix in="SourceAlpha" type="matrix" values="0 0 0 0 0 0 0 0 0 0 0 0 0 0 0 0 0 0 127 0"/>
<feOffset dy="4"/>
<feGaussianBlur stdDeviation="2"/>
<feColorMatrix type="matrix" values="0 0 0 0 0 0 0 0 0 0 0 0 0 0 0 0 0 0 0.1 0"/>
<feBlend mode="normal" in2="BackgroundImageFix" result="effect1_dropShadow"/>
<feBlend mode="normal" in="SourceGraphic" in2="effect1_dropShadow" result="shape"/>
</filter>
<linearGradient id="paint0_linear" x1="25.7176" y1="17.1246" x2="32.5027" y2="19.3317" gradientUnits="userSpaceOnUse">
<stop stop-color="#E2EDF2"/>
<stop offset="1" stop-color="#9FC7E2"/>
</linearGradient>
<linearGradient id="paint1_linear" x1="24.1544" y1="21.5158" x2="22.5562" y2="20.9964" gradientUnits="userSpaceOnUse">
<stop stop-color="#E2EDF2"/>
<stop offset="1" stop-color="#9FC7E2"/>
</linearGradient>
<linearGradient id="paint2_linear" x1="27.2992" y1="11.8468" x2="25.701" y2="11.3268" gradientUnits="userSpaceOnUse">
<stop stop-color="#E2EDF2"/>
<stop offset="1" stop-color="#9FC7E2"/>
</linearGradient>
<linearGradient id="paint3_linear" x1="28.1135" y1="23.6058" x2="30.4793" y2="24.3752" gradientUnits="userSpaceOnUse">
<stop stop-color="#654E48"/>
<stop offset="1" stop-color="#503837"/>
</linearGradient>
<linearGradient id="paint4_linear" x1="25.6054" y1="17.0547" x2="24.0072" y2="16.5347" gradientUnits="userSpaceOnUse">
<stop stop-color="#E2EDF2"/>
<stop offset="1" stop-color="#9FC7E2"/>
</linearGradient>
<linearGradient id="paint5_linear" x1="25.4155" y1="23.5484" x2="19.4957" y2="11.9227" gradientUnits="userSpaceOnUse">
<stop stop-color="#9FC7E2" stop-opacity="0"/>
<stop offset="1" stop-color="#9FC7E2"/>
</linearGradient>
<linearGradient id="paint6_linear" x1="23.204" y1="15.4156" x2="27.6239" y2="16.8532" gradientUnits="userSpaceOnUse">
<stop stop-color="#654E48"/>
<stop offset="1" stop-color="#503837"/>
</linearGradient>
<linearGradient id="paint7_linear" x1="31.4344" y1="13.3943" x2="33.8002" y2="14.1637" gradientUnits="userSpaceOnUse">
<stop stop-color="#654E48"/>
<stop offset="1" stop-color="#503837"/>
</linearGradient>
<linearGradient id="paint8_linear" x1="25.3078" y1="20.8902" x2="20.7356" y2="11.9098" gradientUnits="userSpaceOnUse">
<stop stop-color="#3E2E28" stop-opacity="0"/>
<stop offset="1" stop-color="#503837"/>
</linearGradient>
<linearGradient id="paint9_linear" x1="30.375" y1="18.3099" x2="25.8028" y2="9.32951" gradientUnits="userSpaceOnUse">
<stop stop-color="#3E2E28" stop-opacity="0"/>
<stop offset="1" stop-color="#503837"/>
</linearGradient>
<linearGradient id="paint10_linear" x1="18.3577" y1="24.2043" x2="20.3695" y2="18.018" gradientUnits="userSpaceOnUse">
<stop stop-color="#E2EDF2"/>
<stop offset="1" stop-color="#9FC7E2"/>
</linearGradient>
<linearGradient id="paint11_linear" x1="18.8772" y1="12.2996" x2="25.8452" y2="14.566" gradientUnits="userSpaceOnUse">
<stop stop-color="#E2EDF2"/>
<stop offset="1" stop-color="#9FC7E2"/>
</linearGradient>
<linearGradient id="paint12_linear" x1="18.9818" y1="11.9775" x2="25.9499" y2="14.2439" gradientUnits="userSpaceOnUse">
<stop stop-color="#E2EDF2"/>
<stop offset="1" stop-color="#9FC7E2"/>
</linearGradient>
<linearGradient id="paint13_linear" x1="19.3036" y1="10.2893" x2="21.8036" y2="11.1022" gradientUnits="userSpaceOnUse">
<stop stop-color="#E2EDF2"/>
<stop offset="1" stop-color="#9FC7E2"/>
</linearGradient>
<linearGradient id="paint14_linear" x1="18.8943" y1="10.669" x2="24.6218" y2="12.5319" gradientUnits="userSpaceOnUse">
<stop stop-color="#E2EDF2"/>
<stop offset="1" stop-color="#9FC7E2"/>
</linearGradient>
<linearGradient id="paint15_linear" x1="17.2396" y1="15.7573" x2="22.9671" y2="17.6202" gradientUnits="userSpaceOnUse">
<stop stop-color="#E2EDF2"/>
<stop offset="1" stop-color="#9FC7E2"/>
</linearGradient>
<linearGradient id="paint16_linear" x1="20.5324" y1="5.63293" x2="26.2599" y2="7.49584" gradientUnits="userSpaceOnUse">
<stop stop-color="#E2EDF2"/>
<stop offset="1" stop-color="#9FC7E2"/>
</linearGradient>
<linearGradient id="paint17_linear" x1="15.0528" y1="17.523" x2="7.63021" y2="2.94446" gradientUnits="userSpaceOnUse">
<stop stop-color="#9FC7E2" stop-opacity="0"/>
<stop offset="1" stop-color="#9FC7E2"/>
</linearGradient>
<linearGradient id="paint18_linear" x1="18.1823" y1="6.26065" x2="10.2302" y2="12.3888" gradientUnits="userSpaceOnUse">
<stop stop-color="#654E48"/>
<stop offset="1" stop-color="#503837"/>
</linearGradient>
<linearGradient id="paint19_linear" x1="16.0783" y1="5.97496" x2="26.4698" y2="9.35428" gradientUnits="userSpaceOnUse">
<stop stop-color="#654E48"/>
<stop offset="1" stop-color="#503837"/>
</linearGradient>
<linearGradient id="paint20_linear" x1="12.9713" y1="15.5268" x2="23.3629" y2="18.9061" gradientUnits="userSpaceOnUse">
<stop stop-color="#654E48"/>
<stop offset="1" stop-color="#503837"/>
</linearGradient>
<linearGradient id="paint21_linear" x1="15.1179" y1="8.92806" x2="25.5094" y2="12.3074" gradientUnits="userSpaceOnUse">
<stop stop-color="#654E48"/>
<stop offset="1" stop-color="#503837"/>
</linearGradient>
<linearGradient id="paint22_linear" x1="22.5953" y1="23.2364" x2="11.9491" y2="2.32723" gradientUnits="userSpaceOnUse">
<stop stop-color="#3E2E28" stop-opacity="0"/>
<stop offset="1" stop-color="#503837"/>
</linearGradient>
<linearGradient id="paint23_linear" x1="22.5951" y1="23.2366" x2="11.9488" y2="2.32723" gradientUnits="userSpaceOnUse">
<stop stop-color="#3E2E28" stop-opacity="0"/>
<stop offset="1" stop-color="#503837"/>
</linearGradient>
<linearGradient id="paint24_linear" x1="22.8282" y1="23.1176" x2="12.182" y2="2.20862" gradientUnits="userSpaceOnUse">
<stop stop-color="#3E2E28" stop-opacity="0"/>
<stop offset="1" stop-color="#503837"/>
</linearGradient>
<linearGradient id="paint25_linear" x1="24.4453" y1="15.4531" x2="25.3624" y2="15.7513" gradientUnits="userSpaceOnUse">
<stop stop-color="#E2EDF2"/>
<stop offset="1" stop-color="#9FC7E2"/>
</linearGradient>
<linearGradient id="paint26_linear" x1="18.5189" y1="11.8241" x2="24.2464" y2="13.687" gradientUnits="userSpaceOnUse">
<stop stop-color="#E2EDF2"/>
<stop offset="1" stop-color="#9FC7E2"/>
</linearGradient>
<linearGradient id="paint27_linear" x1="8.65109" y1="14.9008" x2="9.51401" y2="15.1813" gradientUnits="userSpaceOnUse">
<stop stop-color="#FFE7A5"/>
<stop offset="0.966" stop-color="#FFBF5C"/>
</linearGradient>
</defs>
</svg>
