<svg width="40" height="40" viewBox="0 0 40 40" fill="none" xmlns="http://www.w3.org/2000/svg">
<path d="M24.2355 29.6716C23.0967 30.7859 21.5926 31.3997 19.9999 31.3997C18.4074 31.3997 16.9032 30.786 15.7646 29.6716L13.9497 31.5262C15.5762 33.1179 17.7249 33.9944 20 33.9944C22.2752 33.9944 24.4239 33.1179 26.0503 31.5262L24.2355 29.6716Z" fill="#FF564A"/>
<path d="M15.3826 25.7767C16.2185 25.7767 16.8962 25.099 16.8962 24.263C16.8962 23.427 16.2185 22.7493 15.3826 22.7493C14.5466 22.7493 13.8689 23.427 13.8689 24.263C13.8689 25.099 14.5466 25.7767 15.3826 25.7767Z" fill="#FF564A"/>
<path d="M24.6177 25.7767C25.4537 25.7767 26.1313 25.099 26.1313 24.263C26.1313 23.427 25.4537 22.7493 24.6177 22.7493C23.7817 22.7493 23.104 23.427 23.104 24.263C23.104 25.099 23.7817 25.7767 24.6177 25.7767Z" fill="#FF564A"/>
<path d="M36.1198 17.7612C35.3092 15.288 33.9253 13.0143 32.0885 11.1475C31.5755 10.6261 31.0297 10.14 30.4565 9.69078V0L22.0924 1.26914C21.4701 0.93 20.7572 0.737109 20.0001 0.737109C19.243 0.737109 18.5301 0.93 17.9078 1.26914L9.54369 0V9.69078C8.97049 10.1399 8.42471 10.6261 7.91166 11.1475C6.07494 13.0143 4.69103 15.288 3.88041 17.7612C1.6515 18.5197 0.105957 20.6244 0.105957 23.041C0.105957 25.3602 1.52963 27.3913 3.61439 28.2217V38.7027H13.4731C15.5187 39.5575 17.7224 40 20.0002 40C22.2779 40 24.4817 39.5575 26.5272 38.7026H36.386V28.2216C38.4705 27.3912 39.8942 25.3601 39.8942 23.0409C39.8942 20.6243 38.3487 18.5196 36.1198 17.7612ZM24.1083 3.58789L27.8617 3.01844V7.22844L24.746 6.75562L24.1083 6.65891C24.2876 6.1807 24.3863 5.66344 24.3863 5.12336C24.3863 4.58328 24.2876 4.06602 24.1083 3.58789ZM20.0001 3.33203C20.9879 3.33203 21.7914 4.13555 21.7914 5.12328C21.7914 6.11102 20.9879 6.91461 20.0001 6.91461C19.0124 6.91461 18.2088 6.11102 18.2088 5.12328C18.2088 4.13555 19.0123 3.33203 20.0001 3.33203ZM12.1385 3.01836L15.8919 3.58781C15.7126 4.06594 15.6139 4.58328 15.6139 5.12328C15.6139 5.66336 15.7126 6.18062 15.8919 6.65883L15.7568 6.6793L15.2542 6.75562L12.1385 7.22844V3.01836ZM9.76127 12.9674C11.4453 11.2559 13.5396 9.98695 15.8227 9.29391L17.9079 8.9775C18.5301 9.31664 19.243 9.50953 20.0001 9.50953C20.7572 9.50953 21.4701 9.31664 22.0924 8.9775L24.1775 9.29391C26.4606 9.98687 28.5548 11.2559 30.2389 12.9674C31.53 14.2797 32.5563 15.829 33.2606 17.5143C26.9325 17.1742 22.8885 14.0293 22.8474 13.9966L22.0492 13.3572L21.241 13.9838C17.8072 16.6461 13.6421 17.4784 10.7528 17.7077C9.10166 17.8387 7.66478 17.7939 6.65682 17.7194C7.36236 15.9548 8.41807 14.3327 9.76127 12.9674ZM6.20924 36.1077V32.9026C7.05916 34.0903 8.06103 35.1714 9.19018 36.1077H6.20924ZM33.7909 36.1077H30.8099C31.939 35.1713 32.941 34.0903 33.7909 32.9027V36.1077ZM34.8554 25.9753L34.0564 26.1212L33.8385 26.9036C33.0135 29.866 31.2095 32.5375 28.7589 34.4262C26.2303 36.375 23.2014 37.4051 19.9999 37.4051C16.7985 37.4051 13.7697 36.375 11.241 34.4262C8.79033 32.5376 6.9865 29.866 6.16158 26.9037L5.94361 26.1213L5.14463 25.9754C3.72846 25.717 2.70064 24.4829 2.70064 23.041C2.70064 21.6657 3.63603 20.4802 4.95127 20.1493C5.49275 20.2273 6.82182 20.3871 8.60994 20.3871C9.30416 20.3871 10.0677 20.363 10.8808 20.3006C15.1834 19.9706 19.0222 18.6978 22.0503 16.6059C23.856 17.7834 28.4975 20.2969 34.9696 20.1303C36.3261 20.4328 37.299 21.6385 37.299 23.0411C37.2993 24.4827 36.2715 25.7169 34.8554 25.9753Z" fill="#FF564A"/>
</svg>
