<svg width="40" height="40" viewBox="0 0 40 40" fill="none" xmlns="http://www.w3.org/2000/svg">
<path d="M23.2165 26.7204C22.7846 26.2383 22.0437 26.1976 21.5617 26.6296C20.4854 27.594 19.0984 28.1251 17.6562 28.1251C16.214 28.1251 14.827 27.594 13.7507 26.6296C13.2688 26.1977 12.5279 26.2383 12.096 26.7204C11.6641 27.2024 11.7047 27.9433 12.1868 28.3751C13.6935 29.7252 15.636 30.4688 17.6562 30.4688C19.6764 30.4688 21.6189 29.7252 23.1257 28.3751C23.6078 27.9433 23.6484 27.2024 23.2165 26.7204Z" fill="#FF564A"/>
<path d="M36.4844 9.375H30.0595C28.5255 3.97031 23.5459 0 17.6562 0C10.5716 0 4.76562 5.76437 4.76562 12.8906V14.0625C2.1957 14.0625 0 16.1394 0 18.75C0 21.3612 2.19625 23.4375 4.76562 23.4375H4.81945C5.06063 26.1009 6.11469 28.5333 7.73195 30.483C3.43359 30.7345 0 34.4349 0 38.8281C0 39.4753 0.524687 40 1.17188 40H34.0625C34.7097 40 35.2344 39.4753 35.2344 38.8281C35.2344 34.4572 31.8366 30.7765 27.5766 30.4877C29.196 28.5372 30.2516 26.1031 30.493 23.4375H30.5469C33.1316 23.4375 35.2344 21.3347 35.2344 18.75C35.2344 17.8965 35.004 17.0963 34.6038 16.4062H36.4844C38.4229 16.4062 40 14.8291 40 12.8906C40 10.9521 38.4229 9.375 36.4844 9.375ZM4.76562 21.0938C3.45281 21.0938 2.34375 20.0205 2.34375 18.75C2.34375 17.4795 3.45281 16.4062 4.76562 16.4062V21.0938ZM8.85922 7.07961C10.131 7.29094 11.1739 8.18688 11.5953 9.375H7.71266C8.00187 8.5593 8.38867 7.78953 8.85922 7.07961ZM7.10938 12.8906C7.10938 12.4945 7.13211 12.1037 7.17484 11.7188H11.7969V14.0625H7.10938V12.8906ZM32.7738 37.6562H2.46062C3.00891 34.9335 5.41633 32.8125 8.20312 32.8125H10.2533C12.3496 34.2884 14.9034 35.1562 17.6562 35.1562C20.4091 35.1562 22.9629 34.2884 25.0592 32.8125H27.0312C29.8181 32.8125 32.2255 34.9335 32.7738 37.6562ZM28.2031 22.2656C28.2031 28.0812 23.4718 32.8125 17.6562 32.8125C11.8407 32.8125 7.10938 28.0812 7.10938 22.2656V16.4062C9.15078 16.4062 25.4723 16.4062 28.2031 16.4062V22.2656ZM28.2031 14.0625C26.9461 14.0625 16.0393 14.0625 14.1406 14.0625V10.5469C14.1406 8.10836 12.6428 6.01375 10.5193 5.13266C12.3988 3.40227 14.9061 2.34375 17.6562 2.34375C23.4718 2.34375 28.2031 7.07508 28.2031 12.8906V14.0625ZM30.5469 21.0938V16.4062C31.8392 16.4062 32.8906 17.4577 32.8906 18.75C32.8906 20.0423 31.8392 21.0938 30.5469 21.0938ZM36.4844 14.0625H30.5469V12.8906C30.5469 12.4955 30.528 12.1048 30.493 11.7188H36.4844C37.1305 11.7188 37.6562 12.2445 37.6562 12.8906C37.6562 13.5368 37.1305 14.0625 36.4844 14.0625Z" fill="#FF564A"/>
<path d="M12.9688 21.0938C13.616 21.0938 14.1406 20.5691 14.1406 19.9219C14.1406 19.2747 13.616 18.75 12.9688 18.75C12.3215 18.75 11.7969 19.2747 11.7969 19.9219C11.7969 20.5691 12.3215 21.0938 12.9688 21.0938Z" fill="#FF564A"/>
<path d="M22.3438 21.0938C22.991 21.0938 23.5156 20.5691 23.5156 19.9219C23.5156 19.2747 22.991 18.75 22.3438 18.75C21.6965 18.75 21.1719 19.2747 21.1719 19.9219C21.1719 20.5691 21.6965 21.0938 22.3438 21.0938Z" fill="#FF564A"/>
</svg>
