<svg width="40" height="40" viewBox="0 0 40 40" fill="none" xmlns="http://www.w3.org/2000/svg">
<path d="M14.0625 11.7188H16.4062V14.0625H14.0625V11.7188Z" fill="#FC4628"/>
<path d="M9.375 11.7188H11.7188V14.0625H9.375V11.7188Z" fill="#FC4628"/>
<path d="M18.75 11.7188H21.0938V14.0625H18.75V11.7188Z" fill="#FC4628"/>
<path d="M23.4375 11.7188H25.7812V14.0625H23.4375V11.7188Z" fill="#FC4628"/>
<path d="M14.0625 16.4062H16.4062V18.75H14.0625V16.4062Z" fill="#FC4628"/>
<path d="M9.375 16.4062H11.7188V18.75H9.375V16.4062Z" fill="#FC4628"/>
<path d="M18.75 16.4062H21.0938V18.75H18.75V16.4062Z" fill="#FC4628"/>
<path d="M4.6875 16.4062H7.03125V18.75H4.6875V16.4062Z" fill="#FC4628"/>
<path d="M14.0625 21.0938H16.4062V23.4375H14.0625V21.0938Z" fill="#FC4628"/>
<path d="M9.375 21.0938H11.7188V23.4375H9.375V21.0938Z" fill="#FC4628"/>
<path d="M4.6875 21.0938H7.03125V23.4375H4.6875V21.0938Z" fill="#FC4628"/>
<path d="M30.4688 18.8062V2.34375H25.7812V0H23.4375V2.34375H16.4062V0H14.0625V2.34375H7.03125V0H4.6875V2.34375H0V28.125H18.8239C18.7756 28.5352 18.75 28.952 18.75 29.375C18.75 35.2338 23.5162 40 29.375 40C35.2338 40 40 35.2338 40 29.375C40 23.8855 35.8154 19.3552 30.4688 18.8062ZM2.34375 4.6875H28.125V7.03125H2.34375V4.6875ZM2.34375 25.7812V9.375H28.125V18.8239C24.0759 19.3005 20.7169 22.0627 19.3762 25.7812H2.34375ZM29.375 37.6562C24.8087 37.6562 21.0938 33.9413 21.0938 29.375C21.0938 24.8087 24.8087 21.0938 29.375 21.0938C33.9413 21.0938 37.6562 24.8087 37.6562 29.375C37.6562 33.9413 33.9413 37.6562 29.375 37.6562Z" fill="#FC4628"/>
<path d="M30.5469 24.2188H28.2031V30.5469H33.2812V28.2031H30.5469V24.2188Z" fill="#FC4628"/>
</svg>
