<svg width="40" height="40" viewBox="0 0 40 40" fill="none" xmlns="http://www.w3.org/2000/svg">
<path d="M20.7012 28.7092C20.0721 29.7945 18.9054 30.4688 17.6563 30.4688C16.4073 30.4688 15.2405 29.7945 14.6115 28.7092L12.5837 29.8845C13.6305 31.6905 15.5742 32.8125 17.6563 32.8125C19.7384 32.8125 21.6821 31.6905 22.7289 29.8845L20.7012 28.7092Z" fill="#FC4628"/>
<path d="M23.5156 21.0938H21.1719V23.4375H23.5156V21.0938Z" fill="#FC4628"/>
<path d="M14.1406 21.0938H11.7969V23.4375H14.1406V21.0938Z" fill="#FC4628"/>
<path d="M30.4862 11.7188C29.9199 6.14992 25.4561 0 20 0H15.3125C9.47023 0 4.76562 7.05195 4.76562 12.8906V16.4062C2.19578 16.4062 0 18.4831 0 21.0938C0 23.705 2.19625 25.7812 4.76562 25.7812V26.9531C4.76562 34.0501 10.5055 40 17.6562 40C24.8097 40 30.5469 34.047 30.5469 26.9531V25.7812C33.1167 25.7812 35.3125 23.7044 35.3125 21.0938C35.3125 20.2495 35.0823 19.4384 34.652 18.7263C37.6441 18.4662 40 15.9491 40 12.8906V11.7188H30.4862ZM4.76562 23.4375C3.45281 23.4375 2.34375 22.3642 2.34375 21.0938C2.34375 19.8233 3.45281 18.75 4.76562 18.75C4.76562 20.1443 4.76562 22.0141 4.76562 23.4375ZM28.2031 26.9531C28.2031 32.8548 23.4718 37.6562 17.6562 37.6562C11.8407 37.6562 7.10938 32.8548 7.10938 26.9531C7.10938 24.3662 7.10938 21.1801 7.10938 18.75C9.31375 18.75 25.9871 18.75 28.2031 18.75C28.2031 20.618 28.2031 25.2021 28.2031 26.9531ZM14.1406 16.4062V14.0625H21.1719V16.4062H14.1406ZM30.5469 23.4375C30.5469 22.0134 30.5469 20.1442 30.5469 18.75C31.8597 18.75 32.9688 19.8233 32.9688 21.0938C32.9688 22.3642 31.8597 23.4375 30.5469 23.4375ZM34.1406 16.4062C33.0194 16.4062 24.6452 16.4062 23.5156 16.4062V11.7188H11.7969V16.4062H7.10938V12.8906C7.10938 8.33594 10.8517 2.34375 15.3125 2.34375H20C24.4688 2.34375 28.2031 8.34555 28.2031 12.8906V14.0547H37.4555C36.9718 15.4188 35.6685 16.4062 34.1406 16.4062Z" fill="#FC4628"/>
</svg>
