<svg width="36" height="36" viewBox="0 0 36 36" fill="none" xmlns="http://www.w3.org/2000/svg">
<path d="M34.566 27.8011C33.5233 26.7583 32.6713 25.5659 32.0254 24.2496C32.487 23.6997 32.7656 22.9913 32.7656 22.2188V15.8203C32.7656 12.9125 30.4 10.5469 27.4922 10.5469H24.3281H23.2734C21.9341 10.5469 20.7104 11.0497 19.7793 11.8754C19.0322 9.86998 17.0984 8.4375 14.8359 8.4375H11.6719H6.39844C3.49066 8.4375 1.125 10.8032 1.125 13.7109V22.2188C1.125 23.9634 2.5444 25.3828 4.28906 25.3828C4.81008 25.3828 5.30163 25.2554 5.73553 25.0314C5.80922 25.0909 5.89155 25.1423 5.98296 25.1814L7.45312 25.8115V32.8359C7.45312 34.5806 8.87252 36 10.6172 36H25.3828C27.1275 36 28.5469 34.5806 28.5469 32.8359V29.6016H33.8203C34.2469 29.6016 34.6315 29.3446 34.7947 28.9505C34.9579 28.5564 34.8677 28.1027 34.566 27.8011ZM20.1094 18V15.8203C20.1094 14.0756 21.5288 12.6562 23.2734 12.6562H27.4922C29.2369 12.6562 30.6562 14.0756 30.6562 15.8203V22.2188C30.6562 22.8003 30.1831 23.2734 29.6016 23.2734C29.02 23.2734 28.5469 22.8003 28.5469 22.2188C28.5469 22.0004 28.5469 18.5851 28.5469 18.0004C28.5469 17.4179 28.0747 16.9457 27.4922 16.9457C26.9097 16.9457 26.4375 17.4179 26.4375 18.0004V18.9273L21.1635 21.1875C21.1636 21.1797 21.1641 21.1719 21.1641 21.1641C21.1641 20.0697 20.7451 19.0716 20.0592 18.321C20.0916 18.2198 20.1094 18.112 20.1094 18ZM19.0547 21.1641C19.0547 22.3272 18.1084 23.2734 16.9453 23.2734C15.7822 23.2734 14.8359 22.3272 14.8359 21.1641C14.8359 20.001 15.7822 19.0547 16.9453 19.0547C18.1084 19.0547 19.0547 20.001 19.0547 21.1641ZM6.39844 14.766C5.81597 14.766 5.34375 15.2382 5.34375 15.8207C5.34375 17.1347 5.34375 21.0717 5.34375 22.2188C5.34375 22.8003 4.87062 23.2734 4.28906 23.2734C3.70751 23.2734 3.23438 22.8003 3.23438 22.2188V13.7109C3.23438 11.9663 4.65377 10.5469 6.39844 10.5469H14.8359C16.5806 10.5469 18 11.9663 18 13.7109C18 14.7907 18 16.4704 18 17.0788C17.6628 16.9917 17.3094 16.9453 16.9453 16.9453C14.6191 16.9453 12.7266 18.8378 12.7266 21.1641C12.7266 21.1719 12.7271 21.1797 12.7271 21.1875L7.45312 18.9273V15.8207C7.45312 15.2382 6.98091 14.766 6.39844 14.766ZM11.6719 33.8906H10.6172C10.0356 33.8906 9.5625 33.4175 9.5625 32.8359V26.7155L11.6719 27.6195V33.8906ZM20.1094 26.9241V33.8906H13.7812V26.9241C13.7812 26.5022 13.5298 26.1208 13.142 25.9547C12.5503 25.701 7.82423 23.6756 7.21737 23.4155C7.36889 23.0461 7.45312 22.6422 7.45312 22.2188V21.2222L13.7595 23.9249C14.5335 24.8169 15.6742 25.3828 16.9453 25.3828C18.2164 25.3828 19.3571 24.8169 20.1312 23.9248L26.4375 21.2222V22.2188C26.4375 22.6422 26.5217 23.0461 26.6733 23.4155L20.7486 25.9547C20.3608 26.1209 20.1094 26.5022 20.1094 26.9241ZM27.4922 27.4922C26.9097 27.4922 26.4375 27.9644 26.4375 28.5469V32.8359C26.4375 33.4175 25.9644 33.8906 25.3828 33.8906H22.2188V27.6195L27.6681 25.2841C27.8288 25.2153 27.963 25.1107 28.0667 24.9844C28.5216 25.2378 29.0449 25.3828 29.6016 25.3828C29.8078 25.3828 30.0092 25.3624 30.2046 25.3245C30.5874 26.0845 31.0292 26.8087 31.5297 27.4922H27.4922Z" fill="#5FAAA7"/>
<path d="M11.6719 0C9.34566 0 7.45312 1.89253 7.45312 4.21875C7.45312 6.54497 9.34566 8.4375 11.6719 8.4375C13.9981 8.4375 15.8906 6.54497 15.8906 4.21875C15.8906 1.89253 13.9981 0 11.6719 0ZM11.6719 6.32812C10.5088 6.32812 9.5625 5.38186 9.5625 4.21875C9.5625 3.05564 10.5088 2.10938 11.6719 2.10938C12.835 2.10938 13.7812 3.05564 13.7812 4.21875C13.7812 5.38186 12.835 6.32812 11.6719 6.32812Z" fill="#5FAAA7"/>
<path d="M24.3281 2.10938C22.0019 2.10938 20.1094 4.00191 20.1094 6.32812C20.1094 8.65434 22.0019 10.5469 24.3281 10.5469C26.6543 10.5469 28.5469 8.65434 28.5469 6.32812C28.5469 4.00191 26.6543 2.10938 24.3281 2.10938ZM24.3281 8.4375C23.165 8.4375 22.2188 7.49123 22.2188 6.32812C22.2188 5.16502 23.165 4.21875 24.3281 4.21875C25.4912 4.21875 26.4375 5.16502 26.4375 6.32812C26.4375 7.49123 25.4912 8.4375 24.3281 8.4375Z" fill="#5FAAA7"/>
</svg>
