<svg width="32" height="36" viewBox="0 0 32 36" fill="none" xmlns="http://www.w3.org/2000/svg">
<path d="M27.6301 20.5532L22.4918 19.4746C23.0598 18.4293 23.3828 17.2321 23.3828 15.9609V5.27344C23.3828 2.36563 21.0172 0 18.1094 0H13.8906C10.9828 0 8.61719 2.36563 8.61719 5.27344V15.9609C8.61719 17.2321 8.94019 18.4293 9.50818 19.4746L4.36987 20.5532C1.94189 21.063 0.179688 23.2333 0.179688 25.7143V34.9453C0.179688 35.5279 0.651825 36 1.23438 36H30.7656C31.3482 36 31.8203 35.5279 31.8203 34.9453V25.7143C31.8203 23.2333 30.0581 21.063 27.6301 20.5532ZM21.2734 9.38397L20.6815 10.5675C20.4319 11.0668 20.0029 11.439 19.4733 11.6153C18.9438 11.7919 18.3772 11.7515 17.8778 11.5019C16.702 10.9141 15.298 10.9141 14.1219 11.5019C13.6228 11.7515 13.0562 11.7919 12.5267 11.6153C11.9971 11.439 11.5678 11.0668 11.3182 10.5675L10.7266 9.38397V8.57812H21.2734V9.38397ZM10.7266 13.0369C11.0682 13.2833 11.4486 13.4797 11.8595 13.6165C12.296 13.762 12.7448 13.8343 13.1916 13.8343C13.8346 13.8343 14.4734 13.6846 15.0653 13.3888C15.6506 13.0963 16.3494 13.096 16.9344 13.3888C17.9377 13.8903 19.0764 13.9713 20.1405 13.6165C20.5514 13.4797 20.9318 13.2833 21.2734 13.0369V15.9609C21.2734 18.8687 18.9078 21.2344 16 21.2344C13.0922 21.2344 10.7266 18.8687 10.7266 15.9609V13.0369ZM16 27.5625C16.5815 27.5625 17.0547 28.0357 17.0547 28.6172C17.0547 29.1986 16.5815 29.6719 16 29.6719C15.4185 29.6719 14.9453 29.1986 14.9453 28.6172C14.9453 28.0357 15.4185 27.5625 16 27.5625ZM16.3903 25.4781C16.2623 25.4622 16.1324 25.4531 16 25.4531C15.8676 25.4531 15.7377 25.4622 15.6097 25.4781L14.4616 23.182C14.9579 23.2877 15.4727 23.3438 16 23.3438C16.5273 23.3438 17.0421 23.2877 17.5384 23.182L16.3903 25.4781ZM10.7266 5.27344C10.7266 3.52881 12.146 2.10938 13.8906 2.10938H18.1094C19.854 2.10938 21.2734 3.52881 21.2734 5.27344V6.46875H10.7266V5.27344ZM2.28906 31.7812H6.50781V33.8906H2.28906V31.7812ZM8.61719 33.8906V28.6172C8.61719 28.0346 8.14505 27.5625 7.5625 27.5625C6.97995 27.5625 6.50781 28.0346 6.50781 28.6172V29.6719H2.28906V25.7143C2.28906 24.2257 3.34622 22.9235 4.80301 22.6176L10.938 21.33C11.0746 21.4588 11.2166 21.5826 11.3627 21.701L13.7236 26.4229C13.1746 26.9923 12.8359 27.7657 12.8359 28.6172C12.8359 30.3618 14.2554 31.7812 16 31.7812C16.3697 31.7812 16.7245 31.717 17.0547 31.6V32.8359C17.0547 33.4185 17.5268 33.8906 18.1094 33.8906C18.6919 33.8906 19.1641 33.4185 19.1641 32.8359V28.6172C19.1641 27.7657 18.8254 26.9923 18.2764 26.4229L20.6373 21.701C20.7834 21.5826 20.9254 21.4588 21.062 21.3297L27.197 22.6176C28.6538 22.9232 29.7109 24.2257 29.7109 25.7141V29.6719H25.4922V28.6172C25.4922 28.0346 25.0201 27.5625 24.4375 27.5625C23.8549 27.5625 23.3828 28.0346 23.3828 28.6172V33.8906H8.61719ZM25.4922 33.8906V31.7812H29.7109V33.8906H25.4922Z" fill="#5FAAA7"/>
</svg>
