<svg width="38" height="38" viewBox="0 0 38 38" fill="none" xmlns="http://www.w3.org/2000/svg">
<g filter="url(#filter0_d)">
<path d="M31.2865 30H6.71354C5.21488 30 4 28.7851 4 27.2865V5.64677C4 4.14811 5.21488 2.93323 6.71354 2.93323H31.2865C32.7851 2.93323 34 4.14811 34 5.64677V27.2865C34 28.7851 32.7851 30 31.2865 30Z" fill="url(#paint0_linear)"/>
<path d="M10.5938 19.1328C10.5938 14.6641 12.4141 12.4297 16.0547 12.4297C16.6276 12.4297 17.112 12.474 17.5078 12.5625V14.0938C17.112 13.9792 16.6536 13.9219 16.1328 13.9219C14.9089 13.9219 13.9896 14.25 13.375 14.9062C12.7604 15.5625 12.4271 16.6146 12.375 18.0625H12.4688C12.7135 17.6406 13.0573 17.3151 13.5 17.0859C13.9427 16.8516 14.4635 16.7344 15.0625 16.7344C16.099 16.7344 16.9062 17.0521 17.4844 17.6875C18.0625 18.3229 18.3516 19.1849 18.3516 20.2734C18.3516 21.4714 18.0156 22.4193 17.3438 23.1172C16.6771 23.8099 15.7656 24.1562 14.6094 24.1562C13.7917 24.1562 13.0807 23.9609 12.4766 23.5703C11.8724 23.1745 11.4062 22.6016 11.0781 21.8516C10.7552 21.0964 10.5938 20.1901 10.5938 19.1328ZM14.5781 22.6406C15.2083 22.6406 15.6927 22.4375 16.0312 22.0312C16.375 21.625 16.5469 21.0443 16.5469 20.2891C16.5469 19.6328 16.3854 19.1172 16.0625 18.7422C15.7448 18.3672 15.2656 18.1797 14.625 18.1797C14.2292 18.1797 13.8646 18.2656 13.5312 18.4375C13.1979 18.6042 12.9349 18.8359 12.7422 19.1328C12.5495 19.4245 12.4531 19.724 12.4531 20.0312C12.4531 20.7656 12.651 21.3854 13.0469 21.8906C13.4479 22.3906 13.9583 22.6406 14.5781 22.6406ZM27.4453 18.2891C27.4453 20.2734 27.125 21.7474 26.4844 22.7109C25.849 23.6745 24.875 24.1562 23.5625 24.1562C22.2917 24.1562 21.3281 23.6589 20.6719 22.6641C20.0156 21.6693 19.6875 20.2109 19.6875 18.2891C19.6875 16.2734 20.0052 14.7891 20.6406 13.8359C21.2812 12.8776 22.2552 12.3984 23.5625 12.3984C24.8385 12.3984 25.8047 12.8984 26.4609 13.8984C27.1172 14.8984 27.4453 16.362 27.4453 18.2891ZM21.5469 18.2891C21.5469 19.8464 21.7057 20.9583 22.0234 21.625C22.3464 22.2917 22.8594 22.625 23.5625 22.625C24.2656 22.625 24.7786 22.2865 25.1016 21.6094C25.4297 20.9323 25.5938 19.8255 25.5938 18.2891C25.5938 16.7578 25.4297 15.651 25.1016 14.9688C24.7786 14.2812 24.2656 13.9375 23.5625 13.9375C22.8594 13.9375 22.3464 14.2734 22.0234 14.9453C21.7057 15.6172 21.5469 16.7318 21.5469 18.2891Z" fill="#383838" fill-opacity="0.8"/>
<path d="M34 8.42862V5.64676C34 4.14811 32.7851 2.93323 31.2865 2.93323H6.71354C5.21488 2.93329 4 4.14817 4 5.64676V8.42856H34V8.42862Z" fill="url(#paint1_linear)"/>
<path d="M17.6002 11.2964C17.9562 11.6846 18.466 11.9294 19.0341 11.9294C20.1098 11.9294 20.9817 11.0574 20.9817 9.98178C20.9817 9.39233 20.7475 8.82702 20.3308 8.41018L14.8953 2.97473H11V3.89524C11 4.46342 11.2448 4.97319 11.6329 5.32926L17.6002 11.2964Z" fill="url(#paint2_linear)"/>
<path d="M29.0665 11.2964C29.4225 11.6846 29.9323 11.9294 30.5004 11.9294C31.5761 11.9294 32.448 11.0574 32.448 9.98178C32.448 9.39233 32.2138 8.82702 31.7971 8.41018L26.3616 2.97473H22.4663V3.89524C22.4663 4.46342 22.7111 4.97319 23.0992 5.32926L29.0665 11.2964Z" fill="url(#paint3_linear)"/>
<path d="M12.9476 5.84285C11.8719 5.84285 11 4.97092 11 3.89525V1.9476C11 0.871934 11.8719 0 12.9476 0C14.0233 0 14.8952 0.871934 14.8952 1.9476V3.8952C14.8952 4.9708 14.0232 5.84285 12.9476 5.84285Z" fill="url(#paint4_linear)"/>
<path d="M24.4139 5.84285C23.3382 5.84285 22.4663 4.97092 22.4663 3.89525V1.9476C22.4663 0.871934 23.3383 0 24.4139 0C25.4896 0 26.3615 0.871934 26.3615 1.9476V3.8952C26.3615 4.9708 25.4896 5.84285 24.4139 5.84285Z" fill="url(#paint5_linear)"/>
<path d="M4 24.5046V27.2864C4 28.7851 5.21488 30 6.71354 30H31.2865C32.7851 30 34 28.7851 34 27.2864V24.5046L4 24.5046Z" fill="url(#paint6_linear)"/>
</g>
<defs>
<filter id="filter0_d" x="0" y="0" width="38" height="38" filterUnits="userSpaceOnUse" color-interpolation-filters="sRGB">
<feFlood flood-opacity="0" result="BackgroundImageFix"/>
<feColorMatrix in="SourceAlpha" type="matrix" values="0 0 0 0 0 0 0 0 0 0 0 0 0 0 0 0 0 0 127 0"/>
<feOffset dy="4"/>
<feGaussianBlur stdDeviation="2"/>
<feColorMatrix type="matrix" values="0 0 0 0 0 0 0 0 0 0 0 0 0 0 0 0 0 0 0.1 0"/>
<feBlend mode="normal" in2="BackgroundImageFix" result="effect1_dropShadow"/>
<feBlend mode="normal" in="SourceGraphic" in2="effect1_dropShadow" result="shape"/>
</filter>
<linearGradient id="paint0_linear" x1="18.9997" y1="9.44984" x2="18.9997" y2="56.4983" gradientUnits="userSpaceOnUse">
<stop stop-color="#FFF2EB"/>
<stop offset="1" stop-color="#F1DACB"/>
</linearGradient>
<linearGradient id="paint1_linear" x1="18.9997" y1="3.23702" x2="18.9997" y2="13.9821" gradientUnits="userSpaceOnUse">
<stop stop-color="#DC6767"/>
<stop offset="1" stop-color="#940101"/>
</linearGradient>
<linearGradient id="paint2_linear" x1="16.7905" y1="7.68055" x2="9.85185" y2="0.741819" gradientUnits="userSpaceOnUse">
<stop stop-color="#940101" stop-opacity="0"/>
<stop offset="1" stop-color="#019394"/>
</linearGradient>
<linearGradient id="paint3_linear" x1="28.2566" y1="7.68055" x2="21.3179" y2="0.741817" gradientUnits="userSpaceOnUse">
<stop stop-color="#940101" stop-opacity="0"/>
<stop offset="1" stop-color="#019394"/>
</linearGradient>
<linearGradient id="paint4_linear" x1="12.1198" y1="2.922" x2="14.8592" y2="2.922" gradientUnits="userSpaceOnUse">
<stop stop-color="#FEB776"/>
<stop offset="1" stop-color="#FE9154"/>
</linearGradient>
<linearGradient id="paint5_linear" x1="23.5861" y1="2.922" x2="26.3255" y2="2.922" gradientUnits="userSpaceOnUse">
<stop stop-color="#FEB776"/>
<stop offset="1" stop-color="#FE9154"/>
</linearGradient>
<linearGradient id="paint6_linear" x1="18.9997" y1="26.9012" x2="18.9997" y2="31.8606" gradientUnits="userSpaceOnUse">
<stop stop-color="#D3B4A0" stop-opacity="0"/>
<stop offset="1" stop-color="#D3B4A0"/>
</linearGradient>
</defs>
</svg>
