<svg width="40" height="40" viewBox="0 0 40 40" fill="none" xmlns="http://www.w3.org/2000/svg">
<g clip-path="url(#clip0)">
<path d="M40.0001 12.7061C38.7484 12.7061 37.7302 11.6878 37.7302 10.4362V8.49414C37.7302 5.14304 35.0039 2.41672 31.6527 2.41672C29.5681 2.41672 27.6885 3.45547 26.581 5.14312C24.8871 4.37476 23.0074 3.94656 21.0295 3.94656H18.968C16.9909 3.94656 15.1118 4.37445 13.4184 5.14226C12.3109 3.45515 10.4314 2.41672 8.34734 2.41672C4.99625 2.41672 2.26992 5.14297 2.26992 8.49414V10.4362C2.26992 11.6878 1.25164 12.7061 0 12.7061V15.0498H5.69555C5.55742 15.8225 5.48523 16.6176 5.48523 17.4294V19.159H4.57547C2.43586 19.159 0.695156 20.8997 0.695156 23.0394C0.695156 25.179 2.43586 26.9197 4.57547 26.9197H5.78281C7.08266 33.0052 12.5005 37.5831 18.9681 37.5831H21.0296C27.4973 37.5831 32.9151 33.0051 34.215 26.9197H35.4223C37.562 26.9197 39.3027 25.179 39.3027 23.0393C39.3027 20.8997 37.562 19.159 35.4223 19.159H34.5125V17.4294C34.5125 16.6176 34.4403 15.8224 34.3022 15.0498H40.0001V12.7061ZM21.0296 6.29039C26.7759 6.29039 31.5196 10.6642 32.1071 16.2576H31.3152C27.8755 16.2576 25.0773 13.4593 25.0773 10.0196H22.7335C22.7335 13.4592 19.9352 16.2576 16.4955 16.2576H7.8907C8.4782 10.6642 13.2218 6.29039 18.9681 6.29039H21.0296ZM4.01578 12.7061C4.39641 12.0355 4.61375 11.2608 4.61375 10.4362V8.49414C4.61375 6.43539 6.28867 4.76047 8.34742 4.76047C9.57039 4.76047 10.6788 5.34265 11.3688 6.29836C9.09602 7.85484 7.32227 10.0884 6.33992 12.7061H4.01578ZM4.57547 24.576C3.7282 24.576 3.03891 23.8867 3.03891 23.0394C3.03891 22.1921 3.7282 21.5028 4.57547 21.5028H5.48531V24.1005C5.48531 24.2598 5.48914 24.4181 5.49461 24.5761H4.57547V24.576ZM21.0296 35.2394H18.9681C12.826 35.2394 7.82906 30.2425 7.82906 24.1004V18.6012H16.4955C19.6512 18.6012 22.4145 16.8891 23.9054 14.3451C25.3963 16.8891 28.1596 18.6012 31.3152 18.6012H32.1687V24.1004C32.1687 30.2425 27.1717 35.2394 21.0296 35.2394ZM35.4223 21.5028C36.2695 21.5028 36.9588 22.1921 36.9588 23.0394C36.9588 23.8867 36.2695 24.576 35.4223 24.576H34.503C34.5085 24.418 34.5123 24.2597 34.5123 24.1004V21.5027H35.4223V21.5028ZM33.6578 12.7061C32.6758 10.089 30.9026 7.85593 28.6306 6.29945C29.3205 5.34312 30.4293 4.76047 31.6528 4.76047C33.7116 4.76047 35.3864 6.43539 35.3864 8.49414V10.4362C35.3864 11.2609 35.6038 12.0355 35.9844 12.7061H33.6578Z" fill="#FF564A"/>
<path d="M13.7292 21.1555H16.073V23.4995H13.7292V21.1555Z" fill="#FF564A"/>
<path d="M23.9246 21.1555H26.2683V23.4995H23.9246V21.1555Z" fill="#FF564A"/>
<path d="M20 29.8504C18.6215 29.8504 17.5 28.7289 17.5 27.3504H15.1562C15.1562 30.0212 17.3291 32.1941 20 32.1941C22.6709 32.1941 24.8438 30.0212 24.8438 27.3504H22.5C22.5 28.7289 21.3785 29.8504 20 29.8504Z" fill="#FF564A"/>
</g>
<defs>
<clipPath id="clip0">
<rect width="40" height="40" fill="white"/>
</clipPath>
</defs>
</svg>
