<svg width="40" height="40" viewBox="0 0 40 40" fill="none" xmlns="http://www.w3.org/2000/svg">
<path d="M38.8084 26.0858C38.1601 24.3145 37.4896 22.4829 37.4896 20C37.4896 18.3618 38.6237 10.1557 33.5194 4.76281C30.5281 1.60242 25.9795 0 20 0C14.0205 0 9.47188 1.60242 6.48063 4.76281C1.39977 10.1309 2.51039 18.2452 2.51039 20C2.51039 22.4829 1.83992 24.3145 1.19164 26.0858C0.605781 27.6864 0 29.3415 0 31.2969C0 33.9678 0.949844 36.2238 2.74688 37.8212C4.3275 39.2262 6.44281 40 8.70312 40C11.5468 40 13.6674 39.2531 15.0625 38.523V38.8281C15.0625 39.4753 15.5872 40 16.2344 40H23.7656C24.4128 40 24.9375 39.4753 24.9375 38.8281V38.523C26.3326 39.2531 28.4532 40 31.2969 40C33.5572 40 35.6725 39.2262 37.2531 37.8212C39.0502 36.2239 40 33.9678 40 31.2969C40 29.3415 39.3942 27.6864 38.8084 26.0858ZM8.18281 6.37391C10.714 3.69969 14.6898 2.34375 20 2.34375C25.3102 2.34375 29.286 3.69969 31.8172 6.37391C34.7082 9.42836 35.2348 13.622 35.2576 16.6158C34.8123 16.4242 34.322 16.3177 33.8073 16.3177H32.4688V12.4688C32.4688 12.0626 32.2614 11.684 31.9159 11.4705C31.5704 11.2569 31.142 11.236 30.7787 11.4177C29.9712 11.81 27.4661 12.5521 23.7656 12.5521C21.4321 12.5521 20.0689 11.636 18.6257 10.6661C17.2506 9.74203 15.8287 8.78648 13.7239 8.78648C11.1556 8.78648 9.20063 10.4084 8.21898 13.3534C7.8543 14.4473 7.68313 15.5329 7.60266 16.3177H6.19273C5.67797 16.3177 5.18781 16.4243 4.7425 16.6159C4.76523 13.622 5.2918 9.42836 8.18281 6.37391ZM35.1459 20C35.1459 20.738 34.5454 21.3385 33.8073 21.3385H32.4688V18.6614H33.8073C34.5454 18.6615 35.1459 19.262 35.1459 20ZM7.53125 18.6615V21.3386H6.19273C5.45469 21.3386 4.85422 20.7381 4.85422 20.0001C4.85422 19.262 5.45469 18.6616 6.19273 18.6616H7.53125V18.6615ZM15.0625 35.7742C14.2788 36.3682 12.1786 37.6562 8.70312 37.6562C7.01742 37.6562 5.45516 37.0927 4.30391 36.0695C3.02156 34.9296 2.34375 33.2792 2.34375 31.2969C2.34375 29.757 2.82984 28.4291 3.39258 26.8914C3.79055 25.8041 4.21906 24.6322 4.50859 23.273C5.01367 23.5339 5.58602 23.6823 6.19266 23.6823H7.58672C8.01906 28.2982 10.9777 32.1905 15.0625 33.9589V35.7742ZM22.5938 37.6562H17.4062V34.707C18.2433 34.8848 19.1108 34.9791 20 34.9791C20.8892 34.9791 21.7567 34.8848 22.5938 34.707V37.6562ZM20 32.6354C14.417 32.6354 9.875 28.0934 9.875 22.5104V17.4895C9.875 17.4726 9.88148 15.7774 10.4425 14.0945C10.6869 13.3612 11.4305 11.1302 13.724 11.1302C15.1145 11.1302 16.0871 11.7838 17.3184 12.6113C18.833 13.6291 20.7178 14.8958 23.7656 14.8958C26.6646 14.8958 28.7878 14.4905 30.125 14.1191V22.5104C30.125 28.0934 25.583 32.6354 20 32.6354ZM35.6961 36.0695C34.5448 37.0927 32.9826 37.6562 31.2969 37.6562C27.8214 37.6562 25.7213 36.3682 24.9375 35.7742V33.9588C29.0223 32.1904 31.9809 28.298 32.4133 23.6823H33.8073C34.414 23.6823 34.9863 23.5339 35.4914 23.2729C35.7809 24.6321 36.2095 25.8041 36.6074 26.8913C37.1702 28.4291 37.6562 29.757 37.6562 31.2969C37.6562 33.2792 36.9784 34.9296 35.6961 36.0695Z" fill="#FF564A"/>
<path d="M14.9792 19.9166C15.6265 19.9166 16.1511 19.392 16.1511 18.7448C16.1511 18.0975 15.6265 17.5729 14.9792 17.5729C14.332 17.5729 13.8074 18.0975 13.8074 18.7448C13.8074 19.392 14.332 19.9166 14.9792 19.9166Z" fill="#FF564A"/>
<path d="M25.0208 19.9166C25.668 19.9166 26.1926 19.392 26.1926 18.7448C26.1926 18.0975 25.668 17.5729 25.0208 17.5729C24.3735 17.5729 23.8489 18.0975 23.8489 18.7448C23.8489 19.392 24.3735 19.9166 25.0208 19.9166Z" fill="#FF564A"/>
<path d="M23.2582 22.8633C22.76 22.4502 22.0211 22.5195 21.6082 23.0177C21.164 23.5537 20.5928 23.8489 20 23.8489C19.4074 23.8489 18.8364 23.554 18.3925 23.0184C17.9794 22.5201 17.2406 22.451 16.7424 22.864C16.2441 23.277 16.175 24.0158 16.588 24.5141C17.4722 25.5808 18.7159 26.1927 20 26.1927C21.2843 26.1927 22.5282 25.5806 23.4127 24.5134C23.8257 24.0152 23.7565 23.2763 23.2582 22.8633Z" fill="#FF564A"/>
</svg>
